<mxfile host="Electron" agent="Mozilla/5.0 (Windows NT 10.0; Win64; x64) AppleWebKit/537.36 (KHTML, like Gecko) draw.io/24.7.17 Chrome/128.0.6613.36 Electron/32.0.1 Safari/537.36" version="24.7.17">
  <diagram name="Page-1" id="yxEvMOG5IdcBQgZyu1uB">
    <mxGraphModel dx="1114" dy="709" grid="1" gridSize="10" guides="1" tooltips="1" connect="1" arrows="1" fold="1" page="1" pageScale="1" pageWidth="850" pageHeight="1100" math="0" shadow="0">
      <root>
        <mxCell id="0" />
        <mxCell id="1" parent="0" />
        <mxCell id="vLctxdubMTmpN6FHkEXN-1" value="Crud Hilma" style="swimlane;whiteSpace=wrap;html=1;" vertex="1" parent="1">
          <mxGeometry x="18" y="30" width="515" height="1420" as="geometry" />
        </mxCell>
        <mxCell id="vLctxdubMTmpN6FHkEXN-4" style="edgeStyle=orthogonalEdgeStyle;rounded=0;orthogonalLoop=1;jettySize=auto;html=1;exitX=0.5;exitY=1;exitDx=0;exitDy=0;exitPerimeter=0;entryX=0.5;entryY=0;entryDx=0;entryDy=0;" edge="1" parent="vLctxdubMTmpN6FHkEXN-1" source="vLctxdubMTmpN6FHkEXN-2" target="vLctxdubMTmpN6FHkEXN-3">
          <mxGeometry relative="1" as="geometry" />
        </mxCell>
        <mxCell id="vLctxdubMTmpN6FHkEXN-2" value="Mulai" style="strokeWidth=1;html=1;shape=mxgraph.flowchart.start_1;whiteSpace=wrap;" vertex="1" parent="vLctxdubMTmpN6FHkEXN-1">
          <mxGeometry x="210" y="50" width="80" height="40" as="geometry" />
        </mxCell>
        <mxCell id="vLctxdubMTmpN6FHkEXN-7" style="edgeStyle=orthogonalEdgeStyle;rounded=0;orthogonalLoop=1;jettySize=auto;html=1;exitX=0.5;exitY=1;exitDx=0;exitDy=0;entryX=0.5;entryY=0;entryDx=0;entryDy=0;" edge="1" parent="vLctxdubMTmpN6FHkEXN-1" source="vLctxdubMTmpN6FHkEXN-3" target="vLctxdubMTmpN6FHkEXN-5">
          <mxGeometry relative="1" as="geometry" />
        </mxCell>
        <mxCell id="vLctxdubMTmpN6FHkEXN-3" value="Membuka halaman web" style="rounded=0;whiteSpace=wrap;html=1;" vertex="1" parent="vLctxdubMTmpN6FHkEXN-1">
          <mxGeometry x="190" y="130" width="120" height="60" as="geometry" />
        </mxCell>
        <mxCell id="vLctxdubMTmpN6FHkEXN-5" value="Menampilkan halaman login dan register" style="rounded=0;whiteSpace=wrap;html=1;" vertex="1" parent="vLctxdubMTmpN6FHkEXN-1">
          <mxGeometry x="190" y="230" width="120" height="60" as="geometry" />
        </mxCell>
        <mxCell id="vLctxdubMTmpN6FHkEXN-6" value="Login" style="rounded=0;whiteSpace=wrap;html=1;" vertex="1" parent="vLctxdubMTmpN6FHkEXN-1">
          <mxGeometry x="195" y="450" width="120" height="60" as="geometry" />
        </mxCell>
        <mxCell id="vLctxdubMTmpN6FHkEXN-15" style="edgeStyle=orthogonalEdgeStyle;rounded=0;orthogonalLoop=1;jettySize=auto;html=1;exitX=0.5;exitY=1;exitDx=0;exitDy=0;exitPerimeter=0;entryX=0.5;entryY=0;entryDx=0;entryDy=0;" edge="1" parent="vLctxdubMTmpN6FHkEXN-1" source="vLctxdubMTmpN6FHkEXN-8" target="vLctxdubMTmpN6FHkEXN-6">
          <mxGeometry relative="1" as="geometry" />
        </mxCell>
        <mxCell id="vLctxdubMTmpN6FHkEXN-19" style="edgeStyle=orthogonalEdgeStyle;rounded=0;orthogonalLoop=1;jettySize=auto;html=1;exitX=0;exitY=0.5;exitDx=0;exitDy=0;exitPerimeter=0;entryX=1;entryY=0.5;entryDx=0;entryDy=0;" edge="1" parent="vLctxdubMTmpN6FHkEXN-1" source="vLctxdubMTmpN6FHkEXN-8" target="vLctxdubMTmpN6FHkEXN-18">
          <mxGeometry relative="1" as="geometry" />
        </mxCell>
        <mxCell id="vLctxdubMTmpN6FHkEXN-8" value="Sudah Punya Akun?" style="strokeWidth=1;html=1;shape=mxgraph.flowchart.decision;whiteSpace=wrap;" vertex="1" parent="vLctxdubMTmpN6FHkEXN-1">
          <mxGeometry x="190" y="320" width="130" height="80" as="geometry" />
        </mxCell>
        <mxCell id="vLctxdubMTmpN6FHkEXN-9" style="edgeStyle=orthogonalEdgeStyle;rounded=0;orthogonalLoop=1;jettySize=auto;html=1;exitX=0.5;exitY=1;exitDx=0;exitDy=0;entryX=0.5;entryY=0;entryDx=0;entryDy=0;entryPerimeter=0;" edge="1" parent="vLctxdubMTmpN6FHkEXN-1" source="vLctxdubMTmpN6FHkEXN-5" target="vLctxdubMTmpN6FHkEXN-8">
          <mxGeometry relative="1" as="geometry" />
        </mxCell>
        <mxCell id="vLctxdubMTmpN6FHkEXN-16" value="Ya" style="text;html=1;align=center;verticalAlign=middle;resizable=0;points=[];autosize=1;strokeColor=none;fillColor=none;" vertex="1" parent="vLctxdubMTmpN6FHkEXN-1">
          <mxGeometry x="220" y="400" width="40" height="30" as="geometry" />
        </mxCell>
        <mxCell id="vLctxdubMTmpN6FHkEXN-18" value="Registrasi" style="rounded=0;whiteSpace=wrap;html=1;" vertex="1" parent="vLctxdubMTmpN6FHkEXN-1">
          <mxGeometry x="20" y="330" width="120" height="60" as="geometry" />
        </mxCell>
        <mxCell id="vLctxdubMTmpN6FHkEXN-25" style="edgeStyle=orthogonalEdgeStyle;rounded=0;orthogonalLoop=1;jettySize=auto;html=1;exitX=0.5;exitY=1;exitDx=0;exitDy=0;exitPerimeter=0;" edge="1" parent="vLctxdubMTmpN6FHkEXN-1" source="vLctxdubMTmpN6FHkEXN-21" target="vLctxdubMTmpN6FHkEXN-24">
          <mxGeometry relative="1" as="geometry" />
        </mxCell>
        <mxCell id="vLctxdubMTmpN6FHkEXN-26" style="edgeStyle=orthogonalEdgeStyle;rounded=0;orthogonalLoop=1;jettySize=auto;html=1;exitX=0;exitY=0.5;exitDx=0;exitDy=0;exitPerimeter=0;entryX=0;entryY=0.5;entryDx=0;entryDy=0;" edge="1" parent="vLctxdubMTmpN6FHkEXN-1" source="vLctxdubMTmpN6FHkEXN-21" target="vLctxdubMTmpN6FHkEXN-6">
          <mxGeometry relative="1" as="geometry">
            <Array as="points">
              <mxPoint x="140" y="600" />
              <mxPoint x="140" y="480" />
            </Array>
          </mxGeometry>
        </mxCell>
        <mxCell id="vLctxdubMTmpN6FHkEXN-21" value="Berhasil ?" style="strokeWidth=1;html=1;shape=mxgraph.flowchart.decision;whiteSpace=wrap;" vertex="1" parent="vLctxdubMTmpN6FHkEXN-1">
          <mxGeometry x="217.5" y="560" width="75" height="80" as="geometry" />
        </mxCell>
        <mxCell id="vLctxdubMTmpN6FHkEXN-22" style="edgeStyle=orthogonalEdgeStyle;rounded=0;orthogonalLoop=1;jettySize=auto;html=1;exitX=0.5;exitY=1;exitDx=0;exitDy=0;entryX=0.5;entryY=0;entryDx=0;entryDy=0;entryPerimeter=0;" edge="1" parent="vLctxdubMTmpN6FHkEXN-1" source="vLctxdubMTmpN6FHkEXN-6" target="vLctxdubMTmpN6FHkEXN-21">
          <mxGeometry relative="1" as="geometry" />
        </mxCell>
        <mxCell id="vLctxdubMTmpN6FHkEXN-33" style="edgeStyle=orthogonalEdgeStyle;rounded=0;orthogonalLoop=1;jettySize=auto;html=1;exitX=0.5;exitY=1;exitDx=0;exitDy=0;entryX=0.5;entryY=0;entryDx=0;entryDy=0;" edge="1" parent="vLctxdubMTmpN6FHkEXN-1" source="vLctxdubMTmpN6FHkEXN-24" target="vLctxdubMTmpN6FHkEXN-34">
          <mxGeometry relative="1" as="geometry">
            <mxPoint x="255" y="800" as="targetPoint" />
          </mxGeometry>
        </mxCell>
        <mxCell id="vLctxdubMTmpN6FHkEXN-24" value="Menampilkan halaman utama" style="rounded=0;whiteSpace=wrap;html=1;" vertex="1" parent="vLctxdubMTmpN6FHkEXN-1">
          <mxGeometry x="195" y="700" width="120" height="60" as="geometry" />
        </mxCell>
        <mxCell id="vLctxdubMTmpN6FHkEXN-27" value="Ya" style="text;html=1;align=center;verticalAlign=middle;resizable=0;points=[];autosize=1;strokeColor=none;fillColor=none;" vertex="1" parent="vLctxdubMTmpN6FHkEXN-1">
          <mxGeometry x="217.5" y="640" width="40" height="30" as="geometry" />
        </mxCell>
        <mxCell id="vLctxdubMTmpN6FHkEXN-38" style="edgeStyle=orthogonalEdgeStyle;rounded=0;orthogonalLoop=1;jettySize=auto;html=1;exitX=0.5;exitY=1;exitDx=0;exitDy=0;entryX=0.5;entryY=0;entryDx=0;entryDy=0;" edge="1" parent="vLctxdubMTmpN6FHkEXN-1" source="vLctxdubMTmpN6FHkEXN-34" target="vLctxdubMTmpN6FHkEXN-37">
          <mxGeometry relative="1" as="geometry" />
        </mxCell>
        <mxCell id="vLctxdubMTmpN6FHkEXN-34" value="Memilih halaman Crud mahasiswa" style="whiteSpace=wrap;html=1;rounded=0;" vertex="1" parent="vLctxdubMTmpN6FHkEXN-1">
          <mxGeometry x="195" y="810" width="120" height="60" as="geometry" />
        </mxCell>
        <mxCell id="vLctxdubMTmpN6FHkEXN-40" value="" style="edgeStyle=orthogonalEdgeStyle;rounded=0;orthogonalLoop=1;jettySize=auto;html=1;" edge="1" parent="vLctxdubMTmpN6FHkEXN-1" source="vLctxdubMTmpN6FHkEXN-37" target="vLctxdubMTmpN6FHkEXN-39">
          <mxGeometry relative="1" as="geometry" />
        </mxCell>
        <mxCell id="vLctxdubMTmpN6FHkEXN-37" value="Menampilkan halaman mahasiswa" style="whiteSpace=wrap;html=1;rounded=0;" vertex="1" parent="vLctxdubMTmpN6FHkEXN-1">
          <mxGeometry x="195" y="910" width="120" height="60" as="geometry" />
        </mxCell>
        <mxCell id="vLctxdubMTmpN6FHkEXN-44" style="edgeStyle=orthogonalEdgeStyle;rounded=0;orthogonalLoop=1;jettySize=auto;html=1;exitX=0.5;exitY=1;exitDx=0;exitDy=0;entryX=0.5;entryY=0;entryDx=0;entryDy=0;" edge="1" parent="vLctxdubMTmpN6FHkEXN-1" source="vLctxdubMTmpN6FHkEXN-39" target="vLctxdubMTmpN6FHkEXN-43">
          <mxGeometry relative="1" as="geometry" />
        </mxCell>
        <mxCell id="vLctxdubMTmpN6FHkEXN-39" value="Menambahkan, mengedit dan menghapus data" style="whiteSpace=wrap;html=1;rounded=0;" vertex="1" parent="vLctxdubMTmpN6FHkEXN-1">
          <mxGeometry x="195" y="1010" width="120" height="60" as="geometry" />
        </mxCell>
        <mxCell id="vLctxdubMTmpN6FHkEXN-43" value="Operasi Crud" style="whiteSpace=wrap;html=1;rounded=0;" vertex="1" parent="vLctxdubMTmpN6FHkEXN-1">
          <mxGeometry x="195" y="1110" width="120" height="60" as="geometry" />
        </mxCell>
        <mxCell id="vLctxdubMTmpN6FHkEXN-46" value="Logout" style="whiteSpace=wrap;html=1;" vertex="1" parent="vLctxdubMTmpN6FHkEXN-1">
          <mxGeometry x="195" y="1220" width="120" height="60" as="geometry" />
        </mxCell>
        <mxCell id="vLctxdubMTmpN6FHkEXN-48" style="edgeStyle=orthogonalEdgeStyle;rounded=0;orthogonalLoop=1;jettySize=auto;html=1;exitX=0.5;exitY=1;exitDx=0;exitDy=0;entryX=0.5;entryY=0;entryDx=0;entryDy=0;" edge="1" parent="vLctxdubMTmpN6FHkEXN-1" source="vLctxdubMTmpN6FHkEXN-43" target="vLctxdubMTmpN6FHkEXN-46">
          <mxGeometry relative="1" as="geometry" />
        </mxCell>
        <mxCell id="vLctxdubMTmpN6FHkEXN-49" value="Selesai" style="strokeWidth=1;html=1;shape=mxgraph.flowchart.start_1;whiteSpace=wrap;" vertex="1" parent="vLctxdubMTmpN6FHkEXN-1">
          <mxGeometry x="205.5" y="1330" width="100" height="60" as="geometry" />
        </mxCell>
        <mxCell id="vLctxdubMTmpN6FHkEXN-50" style="edgeStyle=orthogonalEdgeStyle;rounded=0;orthogonalLoop=1;jettySize=auto;html=1;exitX=0.5;exitY=1;exitDx=0;exitDy=0;entryX=0.5;entryY=0;entryDx=0;entryDy=0;entryPerimeter=0;" edge="1" parent="vLctxdubMTmpN6FHkEXN-1" source="vLctxdubMTmpN6FHkEXN-46" target="vLctxdubMTmpN6FHkEXN-49">
          <mxGeometry relative="1" as="geometry" />
        </mxCell>
        <mxCell id="vLctxdubMTmpN6FHkEXN-20" value="Tidak" style="text;html=1;align=center;verticalAlign=middle;resizable=0;points=[];autosize=1;strokeColor=none;fillColor=none;" vertex="1" parent="1">
          <mxGeometry x="165" y="358" width="50" height="30" as="geometry" />
        </mxCell>
        <mxCell id="vLctxdubMTmpN6FHkEXN-28" value="Tidak" style="text;html=1;align=center;verticalAlign=middle;resizable=0;points=[];autosize=1;strokeColor=none;fillColor=none;" vertex="1" parent="1">
          <mxGeometry x="185" y="598" width="50" height="30" as="geometry" />
        </mxCell>
      </root>
    </mxGraphModel>
  </diagram>
</mxfile>
